Coordinates
version=1
nRows=60
nColumns=12
inDegrees=yes

Units are S.I. units (second, meters, Newtons, ...)
Angles are in degrees

endheader
time	SC_y	SC_z	SC_x	AC_y	AC_z	AC_x	GH_y	GH_z	GH_yy	EL_x	PS_y
       0.0              -18.13          1.228          22.33          41.36         -6.735         -8.736         -173.6          2.845         -137.4          60.18          76.51
   0.01037              -18.13          1.227          22.34          41.36         -6.734         -8.733         -173.6          2.851         -137.3          60.19          76.52
   0.02074              -18.14          1.227          22.34          41.36         -6.734          -8.73         -173.5          2.858         -137.3           60.2          76.53
    0.0311              -18.14          1.227          22.34          41.36         -6.733         -8.726         -173.5          2.865         -137.3          60.21          76.55
   0.04147              -18.15          1.227          22.35          41.36         -6.733         -8.723         -173.4          2.872         -137.3          60.22          76.56
   0.05184              -18.15          1.227          22.35          41.36         -6.732         -8.719         -173.4           2.88         -137.3          60.23          76.58
   0.06221              -18.16          1.227          22.36          41.36         -6.732         -8.714         -173.3          2.888         -137.3          60.24          76.59
   0.07258              -18.16          1.226          22.37          41.36         -6.731          -8.71         -173.2          2.897         -137.2          60.26          76.61
   0.08294              -18.17          1.226          22.37          41.36         -6.731         -8.705         -173.2          2.906         -137.2          60.27          76.63
   0.09331              -18.18          1.226          22.38          41.37          -6.73           -8.7         -173.1          2.916         -137.2          60.29          76.65
    0.1037              -18.18          1.226          22.39          41.37         -6.729         -8.694         -173.0          2.927         -137.2           60.3          76.67
     0.114              -18.19          1.225           22.4          41.37         -6.728         -8.688         -172.9          2.939         -137.1          60.32          76.69
    0.1244               -18.2          1.225           22.4          41.37         -6.727         -8.682         -172.8          2.952         -137.1          60.34          76.72
    0.1348              -18.21          1.225          22.41          41.37         -6.726         -8.675         -172.7          2.965         -137.1          60.36          76.75
    0.1452              -18.22          1.224          22.42          41.37         -6.725         -8.667         -172.6           2.98         -137.1          60.38          76.78
    0.1555              -18.23          1.224          22.44          41.37         -6.724         -8.659         -172.5          2.996         -137.0           60.4          76.81
    0.1659              -18.24          1.224          22.45          41.37         -6.723          -8.65         -172.4          3.013         -137.0          60.43          76.84
    0.1763              -18.25          1.223          22.46          41.37         -6.722          -8.64         -172.2          3.032         -136.9          60.46          76.88
    0.1866              -18.26          1.223          22.48          41.38         -6.721         -8.629         -172.1          3.053         -136.9          60.49          76.92
     0.197              -18.28          1.222          22.49          41.38         -6.719         -8.617         -171.9          3.076         -136.8          60.52          76.97
    0.2074              -18.29          1.222          22.51          41.38         -6.717         -8.605         -171.7          3.101         -136.8          60.56          77.02
    0.2177              -18.31          1.221          22.53          41.38         -6.715          -8.59         -171.5          3.128         -136.7           60.6          77.07
    0.2281              -18.33           1.22          22.55          41.38         -6.713         -8.575         -171.3          3.158         -136.7          60.65          77.13
    0.2385              -18.35          1.219          22.57          41.39         -6.711         -8.557         -171.1          3.192         -136.6           60.7           77.2
    0.2488              -18.38          1.219           22.6          41.39         -6.709         -8.538         -170.8          3.229         -136.5          60.75          77.27
    0.2592               -18.4          1.218          22.63          41.39         -6.706         -8.517         -170.5          3.271         -136.4          60.82          77.36
    0.2696              -18.43          1.217          22.66           41.4         -6.703         -8.493         -170.1          3.317         -136.3          60.89          77.45
    0.2799              -18.47          1.215           22.7           41.4         -6.699         -8.466         -169.7           3.37         -136.2          60.96          77.55
    0.2903               -18.5          1.214          22.74          41.41         -6.695         -8.435         -169.3          3.429         -136.1          61.05          77.67
    0.3007              -18.55          1.212          22.78          41.41          -6.69           -8.4         -168.8          3.496         -135.9          61.15           77.8
     0.311               -18.6          1.211          22.84          41.42         -6.685         -8.361         -168.2          3.573         -135.7          61.27          77.96
    0.3214              -18.65          1.209           22.9          41.42         -6.679         -8.315         -167.6          3.661         -135.5           61.4          78.13
    0.3318              -18.72          1.206          22.97          41.43         -6.672         -8.263         -166.8          3.763         -135.3          61.55          78.34
    0.3421              -18.79          1.203          23.05          41.44         -6.664         -8.202         -166.0          3.881         -135.0          61.73          78.57
    0.3525              -18.88            1.2          23.15          41.45         -6.655          -8.13         -164.9          4.019         -134.7          61.94          78.85
    0.3629              -18.99          1.196          23.26          41.47         -6.644         -8.046         -163.7          4.182         -134.4          62.18          79.17
    0.3732              -19.11          1.192          23.39          41.48         -6.631         -7.946         -162.3          4.376         -133.9          62.47          79.56
    0.3836              -19.26          1.187          23.56           41.5         -6.615         -7.826         -160.6          4.608         -133.4          62.82          80.02
     0.394              -19.44           1.18          23.75          41.52         -6.596         -7.681         -158.5          4.889         -132.8          63.24          80.58
    0.4043              -19.66          1.172          23.99          41.55         -6.573         -7.504         -156.0          5.232         -132.0          63.75          81.27
    0.4147              -19.93          1.162          24.28          41.58         -6.544         -7.285         -152.8          5.656         -131.1          64.38          82.11
    0.4251              -20.27           1.15          24.65          41.62         -6.508         -7.012         -148.9          6.184         -129.9          65.17          83.16
    0.4355               -20.7          1.134          25.11          41.68         -6.463         -6.668         -144.0          6.849         -128.4          66.17          84.49
    0.4458              -21.24          1.115           25.7          41.74         -6.406         -6.231         -137.7          7.695         -126.6          67.43          86.17
    0.4562              -21.94           1.09          26.45          41.83         -6.332         -5.672         -129.7          8.778         -124.2          69.05          88.33
    0.4666              -22.83          1.057          27.41          41.94         -6.238         -4.955         -119.4          10.17         -121.1          71.13           91.1
    0.4769              -23.97          1.016          28.65          42.08         -6.118         -4.038         -106.3          11.94         -117.1          73.79          94.64
    0.4873               -25.4         0.9641           30.2          42.26         -5.966         -2.886         -89.79          14.17         -112.2          77.13          99.09
    0.4977              -27.14         0.9009          32.08          42.47         -5.782         -1.481         -69.66          16.89         -106.1          81.19          104.5
     0.508              -29.16         0.8276          34.27          42.72         -5.568         0.1469         -46.34          20.04          -99.1          85.91          110.8
    0.5184              -31.35         0.7482          36.64          42.99         -5.336           1.91         -21.08          23.46         -91.51          91.01          117.6
    0.5288              -33.54         0.6688          39.01          43.26         -5.105          3.672          4.172          26.87         -83.92          96.12          124.4
    0.5391              -35.56         0.5955           41.2          43.51         -4.891            5.3           27.5          30.02         -76.91          100.8          130.7
    0.5495              -37.31         0.5323          43.09          43.72         -4.707          6.705          47.62          32.74         -70.86          104.9          136.1
    0.5599              -38.74         0.4804          44.64           43.9         -4.555          7.857          64.13          34.97         -65.89          108.2          140.5
    0.5702              -39.88         0.4391          45.87          44.04         -4.435          8.774          77.27          36.75         -61.95          110.9          144.1
    0.5806              -40.77         0.4068          46.83          44.15         -4.341          9.492          87.55          38.14         -58.86          113.0          146.9
     0.591              -41.46         0.3816          47.58          44.23         -4.267          10.05          95.56          39.22         -56.45          114.6          149.0
    0.6013              -42.01         0.3619          48.17           44.3          -4.21          10.49          101.8          40.06         -54.57          115.9          150.7
    0.6117              -42.43         0.3465          48.63          44.35         -4.165          10.83          106.7          40.73         -53.09          116.9          152.0
